<?xml version="1.0" encoding="UTF-8" standalone="no"?>
<svg
   xmlns:osb="http://www.openswatchbook.org/uri/2009/osb"
   xmlns:dc="http://purl.org/dc/elements/1.1/"
   xmlns:cc="http://creativecommons.org/ns#"
   xmlns:rdf="http://www.w3.org/1999/02/22-rdf-syntax-ns#"
   xmlns:svg="http://www.w3.org/2000/svg"
   xmlns="http://www.w3.org/2000/svg"
   xmlns:sodipodi="http://sodipodi.sourceforge.net/DTD/sodipodi-0.dtd"
   xmlns:inkscape="http://www.inkscape.org/namespaces/inkscape"
   width="16"
   height="16"
   viewBox="0 0 4.2333332 4.2333335"
   version="1.1"
   id="svg8"
   sodipodi:docname="buoyant.svg"
   inkscape:version="1.0.1 (3bc2e813f5, 2020-09-07)">
  <defs
     id="defs2">
    <linearGradient
       id="linearGradient3334"
       osb:paint="solid">
      <stop
         style="stop-color:#fc9c9c;stop-opacity:1;"
         offset="0"
         id="stop3332" />
    </linearGradient>
    <linearGradient
       id="linearGradient3326"
       osb:paint="solid">
      <stop
         style="stop-color:#fcff9c;stop-opacity:1;"
         offset="0"
         id="stop3324" />
    </linearGradient>
  </defs>
  <sodipodi:namedview
     id="base"
     pagecolor="#ffffff"
     bordercolor="#666666"
     borderopacity="1.0"
     inkscape:pageopacity="0.0"
     inkscape:pageshadow="2"
     inkscape:zoom="22.4"
     inkscape:cx="4.943329"
     inkscape:cy="9.6792102"
     inkscape:document-units="mm"
     inkscape:current-layer="layer2"
     inkscape:document-rotation="0"
     showgrid="false"
     units="px"
     inkscape:window-width="1920"
     inkscape:window-height="1001"
     inkscape:window-x="-9"
     inkscape:window-y="-9"
     inkscape:window-maximized="1" />
  <metadata
     id="metadata5">
    <rdf:RDF>
      <cc:Work
         rdf:about="">
        <dc:format>image/svg+xml</dc:format>
        <dc:type
           rdf:resource="http://purl.org/dc/dcmitype/StillImage" />
        <dc:title></dc:title>
      </cc:Work>
    </rdf:RDF>
  </metadata>
  <g
     inkscape:groupmode="layer"
     id="layer2"
     inkscape:label="Layer 2"
     style="display:inline">
    <path
       id="path3322"
       style="fill:#fc9c9c;fill-opacity:1;stroke:none;stroke-width:1.01254;stroke-miterlimit:4;stroke-dasharray:none;stroke-opacity:1"
       d="M 7.9101562 2.8300781 A 5.1699171 5.1699171 0 0 0 3.8671875 4.8925781 C 4.6173432 4.8600651 5.2933769 4.8917624 5.9121094 4.9902344 C 7.8705653 5.3019248 8.9110491 6.0720545 10.046875 6.4589844 C 11.117155 6.8235853 12.129684 7.0929844 13.111328 7.2265625 A 5.1699171 5.1699171 0 0 0 8 2.8300781 A 5.1699171 5.1699171 0 0 0 7.9101562 2.8300781 z M 4.3320312 9.0332031 C 3.9543507 9.0373658 3.4998236 9.0757866 2.9609375 9.1542969 A 5.1699171 5.1699171 0 0 0 8 13.169922 A 5.1699171 5.1699171 0 0 0 12.021484 11.248047 C 10.86847 11.05397 9.7524777 10.752003 8.703125 10.394531 C 6.96633 9.8028757 6.2726188 9.2555686 5.2558594 9.09375 C 5.0016695 9.0532954 4.7003171 9.029144 4.3320312 9.0332031 z "
       transform="scale(0.26458333)" />
  </g>
  <g
     inkscape:label="Layer 1"
     inkscape:groupmode="layer"
     id="layer1"
     style="display:inline">
    <path
       style="fill:none;fill-opacity:1;stroke:#fc9c9c;stroke-width:0.5;stroke-linecap:butt;stroke-linejoin:miter;stroke-miterlimit:4;stroke-dasharray:none;stroke-opacity:1"
       d="M -0.50948254,2.1715649 C 1.5618563,1.5284476 1.7205476,1.9711127 2.4805953,2.2300301 c 0.7600478,0.2589174 1.545152,0.3925521 2.3302562,0.050113"
       id="path3319" />
  </g>
</svg>
